<svg width="300" height="37" viewBox="0 0 300 37" fill="none" xmlns="http://www.w3.org/2000/svg">
<path d="M8.36 23.65H21.175L22.275 26.73H7.48L8.36 23.65ZM28.545 31.79C28.6917 32.3033 29.0767 32.6333 29.7 32.78L32.12 33.44V36.025H18.15V33.44L22.055 32.725L13.75 7.04H15.4L7.425 32.725L11.275 33.44V36.025H0V33.44L2.64 32.78C3.19 32.6333 3.55667 32.3033 3.74 31.79L12.98 4.455H19.14L28.545 31.79Z" fill="#141414"/>
<path d="M48.5732 36.025V33.44L50.2232 33.055C50.5532 32.9817 50.7915 32.8533 50.9382 32.67C51.1215 32.4867 51.2132 32.2117 51.2132 31.845V21.835C51.2132 19.8183 50.9198 18.37 50.3332 17.49C49.7832 16.61 48.8298 16.17 47.4732 16.17C46.4832 16.17 45.5115 16.3717 44.5582 16.775C43.6048 17.1417 42.7248 17.6917 41.9182 18.425L41.9732 16.5C43.0365 15.0333 44.2832 13.97 45.7132 13.31C47.1798 12.65 48.7748 12.32 50.4982 12.32C53.1748 12.32 54.9898 13.09 55.9432 14.63C56.9332 16.1333 57.4282 18.2783 57.4282 21.065V31.845C57.4282 32.5417 57.7582 32.945 58.4182 33.055L60.6732 33.44V36.025H48.5732ZM33.6682 36.025V33.44L35.9782 33.055C36.6015 32.945 36.9132 32.5417 36.9132 31.845V17.82C36.9132 17.1233 36.6015 16.72 35.9782 16.61L33.4482 16.17V13.53C34.7315 13.1633 36.0882 12.8883 37.5182 12.705C38.9482 12.5217 40.3048 12.4117 41.5882 12.375L42.5232 13.2L43.1832 17.27V31.845C43.1832 32.505 43.4948 32.9083 44.1182 33.055L45.7682 33.44V36.025H33.6682Z" fill="#141414"/>
<path d="M65.8466 16.39L62.6566 15.895V13.475L65.1866 13.035C65.5533 12.9617 65.8099 12.8517 65.9566 12.705C66.1399 12.5217 66.2866 12.265 66.3966 11.935L68.3766 6.105H71.8966L72.0616 12.87H78.7166V16.28H72.1716V28.105C72.1716 29.7183 72.4099 30.8183 72.8866 31.405C73.3633 31.955 74.0783 32.23 75.0316 32.23C75.6549 32.23 76.2966 32.12 76.9566 31.9C77.6166 31.68 78.2033 31.3133 78.7166 30.8L80.0366 32.23C79.3766 33.6233 78.3683 34.6683 77.0116 35.365C75.6549 36.025 74.1149 36.355 72.3916 36.355C71.0716 36.355 69.9166 36.1717 68.9266 35.805C67.9733 35.4017 67.2216 34.7233 66.6716 33.77C66.1216 32.78 65.8466 31.405 65.8466 29.645V16.39Z" fill="#141414"/>
<path d="M97.6856 24.75C97.6856 22.55 97.5573 20.735 97.3006 19.305C97.0439 17.875 96.5673 16.83 95.8706 16.17C95.2106 15.4733 94.2939 15.125 93.1206 15.125C91.6539 15.125 90.5539 15.8033 89.8206 17.16C89.1239 18.5167 88.7756 20.845 88.7756 24.145C88.7756 26.3817 88.9039 28.215 89.1606 29.645C89.4539 31.075 89.9306 32.1383 90.5906 32.835C91.2872 33.495 92.2223 33.825 93.3956 33.825C94.8256 33.825 95.8889 33.1467 96.5856 31.79C97.3189 30.4333 97.6856 28.0867 97.6856 24.75ZM82.0106 24.695C82.0106 21.725 82.5239 19.3417 83.5506 17.545C84.5772 15.7117 85.9706 14.3917 87.7306 13.585C89.4906 12.7417 91.4523 12.32 93.6156 12.32C95.9622 12.32 97.9239 12.7783 99.5006 13.695C101.114 14.6117 102.342 15.95 103.186 17.71C104.029 19.47 104.451 21.6517 104.451 24.255C104.451 27.2617 103.937 29.6633 102.911 31.46C101.921 33.2567 100.546 34.5583 98.7856 35.365C97.0623 36.1717 95.1006 36.575 92.9006 36.575C90.5539 36.575 88.5739 36.135 86.9606 35.255C85.3473 34.3383 84.1189 33 83.2756 31.24C82.4323 29.48 82.0106 27.2983 82.0106 24.695Z" fill="#141414"/>
<path d="M122.909 36.025V33.44L124.559 33.055C124.889 32.9817 125.127 32.8533 125.274 32.67C125.457 32.4867 125.549 32.2117 125.549 31.845V21.835C125.549 19.8183 125.256 18.37 124.669 17.49C124.119 16.61 123.166 16.17 121.809 16.17C120.819 16.17 119.847 16.3717 118.894 16.775C117.941 17.1417 117.061 17.6917 116.254 18.425L116.309 16.5C117.372 15.0333 118.619 13.97 120.049 13.31C121.516 12.65 123.111 12.32 124.834 12.32C127.511 12.32 129.326 13.09 130.279 14.63C131.269 16.1333 131.764 18.2783 131.764 21.065V31.845C131.764 32.5417 132.094 32.945 132.754 33.055L135.009 33.44V36.025H122.909ZM108.004 36.025V33.44L110.314 33.055C110.937 32.945 111.249 32.5417 111.249 31.845V17.82C111.249 17.1233 110.937 16.72 110.314 16.61L107.784 16.17V13.53C109.067 13.1633 110.424 12.8883 111.854 12.705C113.284 12.5217 114.641 12.4117 115.924 12.375L116.859 13.2L117.519 17.27V31.845C117.519 32.505 117.831 32.9083 118.454 33.055L120.104 33.44V36.025H108.004Z" fill="#141414"/>
<path d="M147.168 31.845C147.168 32.5417 147.498 32.945 148.158 33.055L150.413 33.44V36.025H137.708V33.44L139.908 33.055C140.568 32.945 140.898 32.5417 140.898 31.845V17.82C140.898 17.1233 140.586 16.72 139.963 16.61L137.433 16.17V13.53C138.789 13.1267 140.274 12.8517 141.888 12.705C143.501 12.5217 144.986 12.4117 146.343 12.375L147.168 13.2V31.845ZM147.278 6.105C147.278 7.13167 146.948 7.95667 146.288 8.58C145.628 9.20333 144.748 9.515 143.648 9.515C142.548 9.515 141.668 9.20333 141.008 8.58C140.348 7.95667 140.018 7.13167 140.018 6.105C140.018 5.07833 140.348 4.27167 141.008 3.685C141.668 3.06167 142.548 2.75 143.648 2.75C144.748 2.75 145.628 3.06167 146.288 3.685C146.948 4.27167 147.278 5.07833 147.278 6.105Z" fill="#141414"/>
<path d="M169.067 24.75C169.067 22.55 168.939 20.735 168.682 19.305C168.426 17.875 167.949 16.83 167.252 16.17C166.592 15.4733 165.676 15.125 164.502 15.125C163.036 15.125 161.936 15.8033 161.202 17.16C160.506 18.5167 160.157 20.845 160.157 24.145C160.157 26.3817 160.286 28.215 160.542 29.645C160.836 31.075 161.312 32.1383 161.972 32.835C162.669 33.495 163.604 33.825 164.777 33.825C166.207 33.825 167.271 33.1467 167.967 31.79C168.701 30.4333 169.067 28.0867 169.067 24.75ZM153.392 24.695C153.392 21.725 153.906 19.3417 154.932 17.545C155.959 15.7117 157.352 14.3917 159.112 13.585C160.872 12.7417 162.834 12.32 164.997 12.32C167.344 12.32 169.306 12.7783 170.882 13.695C172.496 14.6117 173.724 15.95 174.567 17.71C175.411 19.47 175.832 21.6517 175.832 24.255C175.832 27.2617 175.319 29.6633 174.292 31.46C173.302 33.2567 171.927 34.5583 170.167 35.365C168.444 36.1717 166.482 36.575 164.282 36.575C161.936 36.575 159.956 36.135 158.342 35.255C156.729 34.3383 155.501 33 154.657 31.24C153.814 29.48 153.392 27.2983 153.392 24.695Z" fill="#141414"/>
<path d="M201.126 22.055V31.79C201.126 32.3767 201.419 32.7067 202.006 32.78L207.121 33.44V36.025H190.456V33.44L193.646 32.835C194.269 32.725 194.581 32.3583 194.581 31.735V9.075C194.581 8.415 194.251 8.03 193.591 7.92L190.456 7.26V4.565H213.886C214.032 5.92167 214.106 7.27833 214.106 8.635C214.106 9.99167 214.051 11.385 213.941 12.815H210.806L209.816 9.075C209.596 8.45167 209.211 8.03 208.661 7.81C208.257 7.7 207.726 7.60833 207.066 7.535C206.406 7.425 205.727 7.37 205.031 7.37H201.126V18.865L210.091 18.535V22.275L201.126 22.055Z" fill="#141414"/>
<path d="M226.767 31.845C226.767 32.5417 227.097 32.945 227.757 33.055L230.012 33.44V36.025H217.307V33.44L219.507 33.055C220.167 32.945 220.497 32.5417 220.497 31.845V17.82C220.497 17.1233 220.185 16.72 219.562 16.61L217.032 16.17V13.53C218.389 13.1267 219.874 12.8517 221.487 12.705C223.1 12.5217 224.585 12.4117 225.942 12.375L226.767 13.2V31.845ZM226.877 6.105C226.877 7.13167 226.547 7.95667 225.887 8.58C225.227 9.20333 224.347 9.515 223.247 9.515C222.147 9.515 221.267 9.20333 220.607 8.58C219.947 7.95667 219.617 7.13167 219.617 6.105C219.617 5.07833 219.947 4.27167 220.607 3.685C221.267 3.06167 222.147 2.75 223.247 2.75C224.347 2.75 225.227 3.06167 225.887 3.685C226.547 4.27167 226.877 5.07833 226.877 6.105Z" fill="#141414"/>
<path d="M241.902 31.845C241.902 32.5417 242.232 32.945 242.892 33.055L245.477 33.44V36.025H232.112V33.44L234.697 33.055C235.357 32.945 235.687 32.56 235.687 31.9V5.335C235.687 4.675 235.357 4.29 234.697 4.18L231.947 3.74V1.265C233.304 0.898334 234.825 0.605001 236.512 0.385002C238.199 0.165 239.72 0.0366662 241.077 0L241.902 0.879999V31.845Z" fill="#141414"/>
<path d="M247.586 36.025V33.44L249.786 33.055C250.483 32.945 250.831 32.56 250.831 31.9V5.17C250.831 4.51 250.501 4.125 249.841 4.015L247.146 3.575V1.1C248.466 0.733333 249.969 0.476666 251.656 0.329999C253.343 0.146666 254.846 0.0366662 256.166 0L257.046 0.879999V31.845C257.046 32.4683 257.376 32.8717 258.036 33.055L259.631 33.44V36.025H247.586ZM262.546 36.025V33.44L264.141 33.055C264.434 32.945 264.673 32.8167 264.856 32.67C265.039 32.4867 265.131 32.2117 265.131 31.845V21.78C265.131 19.8 264.838 18.37 264.251 17.49C263.701 16.61 262.729 16.17 261.336 16.17C260.383 16.17 259.411 16.3717 258.421 16.775C257.468 17.1417 256.606 17.6917 255.836 18.425L255.891 16.5C256.918 15.0333 258.164 13.97 259.631 13.31C261.098 12.65 262.693 12.32 264.416 12.32C267.093 12.32 268.908 13.09 269.861 14.63C270.851 16.1333 271.346 18.26 271.346 21.01V31.845C271.346 32.5417 271.676 32.945 272.336 33.055L274.591 33.44V36.025H262.546Z" fill="#141414"/>
<path d="M292.979 24.75C292.979 22.55 292.85 20.735 292.594 19.305C292.337 17.875 291.86 16.83 291.164 16.17C290.504 15.4733 289.587 15.125 288.414 15.125C286.947 15.125 285.847 15.8033 285.114 17.16C284.417 18.5167 284.069 20.845 284.069 24.145C284.069 26.3817 284.197 28.215 284.454 29.645C284.747 31.075 285.224 32.1383 285.884 32.835C286.58 33.495 287.515 33.825 288.689 33.825C290.119 33.825 291.182 33.1467 291.879 31.79C292.612 30.4333 292.979 28.0867 292.979 24.75ZM277.304 24.695C277.304 21.725 277.817 19.3417 278.844 17.545C279.87 15.7117 281.264 14.3917 283.024 13.585C284.784 12.7417 286.745 12.32 288.909 12.32C291.255 12.32 293.217 12.7783 294.794 13.695C296.407 14.6117 297.635 15.95 298.479 17.71C299.322 19.47 299.744 21.6517 299.744 24.255C299.744 27.2617 299.23 29.6633 298.204 31.46C297.214 33.2567 295.839 34.5583 294.079 35.365C292.355 36.1717 290.394 36.575 288.194 36.575C285.847 36.575 283.867 36.135 282.254 35.255C280.64 34.3383 279.412 33 278.569 31.24C277.725 29.48 277.304 27.2983 277.304 24.695Z" fill="#141414"/>
</svg>
